<mxfile host="app.diagrams.net" agent="Mozilla/5.0 (Windows NT 10.0; Win64; x64) AppleWebKit/537.36 (KHTML, like Gecko) Chrome/129.0.0.0 Safari/537.36" version="24.7.16">
  <diagram name="Page-1" id="2c0d36ab-eaac-3732-788b-9136903baeff">
    <mxGraphModel dx="3802.5" dy="1114" grid="1" gridSize="10" guides="1" tooltips="1" connect="1" arrows="1" fold="1" page="1" pageScale="1.5" pageWidth="1169" pageHeight="827" background="none" math="0" shadow="0">
      <root>
        <mxCell id="0" />
        <mxCell id="1" parent="0" />
        <mxCell id="SnyUNI3W6FsP-a_xVLL4-166" value="" style="fillColor=#FF6666;strokeColor=#A50040;opacity=30;fontColor=#ffffff;glass=0;" vertex="1" parent="1">
          <mxGeometry x="-31" y="460" width="150" height="1430" as="geometry" />
        </mxCell>
        <mxCell id="123" value="" style="fillColor=#FF6666;strokeColor=none;opacity=30;" parent="1" vertex="1">
          <mxGeometry x="747" y="175.50000000000003" width="210" height="99.99999999999994" as="geometry" />
        </mxCell>
        <mxCell id="122" value="" style="fillColor=#10739E;strokeColor=none;opacity=30;" parent="1" vertex="1">
          <mxGeometry x="97" y="325.5" width="1470" height="99.99999999999994" as="geometry" />
        </mxCell>
        <mxCell id="121" value="" style="fillColor=#F2931E;strokeColor=none;opacity=30;" parent="1" vertex="1">
          <mxGeometry x="1557" y="705.5" width="150" height="270" as="geometry" />
        </mxCell>
        <mxCell id="120" value="" style="fillColor=#F2931E;strokeColor=none;opacity=30;" parent="1" vertex="1">
          <mxGeometry x="767" y="455.5" width="150" height="90" as="geometry" />
        </mxCell>
        <mxCell id="119" value="" style="fillColor=#F2931E;strokeColor=none;opacity=30;" parent="1" vertex="1">
          <mxGeometry x="318.5" y="715.5" width="150" height="270" as="geometry" />
        </mxCell>
        <mxCell id="118" value="" style="fillColor=#FF6666;strokeColor=#A50040;opacity=30;fontColor=#ffffff;" parent="1" vertex="1">
          <mxGeometry x="153.5" y="445.5" width="150" height="1314.5" as="geometry" />
        </mxCell>
        <mxCell id="116" value="" style="fillColor=#10739E;strokeColor=none;opacity=30;" parent="1" vertex="1">
          <mxGeometry x="1557" y="985.5000000000002" width="150" height="80" as="geometry" />
        </mxCell>
        <mxCell id="115" value="" style="fillColor=#10739E;strokeColor=none;opacity=30;" parent="1" vertex="1">
          <mxGeometry x="1207" y="715.5" width="330" height="80" as="geometry" />
        </mxCell>
        <mxCell id="114" value="" style="fillColor=#10739E;strokeColor=none;opacity=30;" parent="1" vertex="1">
          <mxGeometry x="318.4999999999999" y="995.5000000000001" width="150" height="80" as="geometry" />
        </mxCell>
        <mxCell id="113" value="" style="fillColor=#10739E;strokeColor=none;opacity=30;" parent="1" vertex="1">
          <mxGeometry x="-31.499999999999943" y="725.5000000000001" width="329.99999999999994" height="80" as="geometry" />
        </mxCell>
        <mxCell id="110" value="" style="fillColor=#12AAB5;strokeColor=none;opacity=30;" parent="1" vertex="1">
          <mxGeometry x="1207" y="445.5000000000001" width="500" height="80" as="geometry" />
        </mxCell>
        <mxCell id="109" value="" style="fillColor=#12AAB5;strokeColor=none;opacity=30;" parent="1" vertex="1">
          <mxGeometry x="-31.5" y="455.5" width="500" height="80" as="geometry" />
        </mxCell>
        <mxCell id="2" value="SEPHORA" style="rounded=1;fillColor=#000000;gradientColor=none;strokeColor=none;fontColor=#FFFFFF;fontStyle=1;fontFamily=Tahoma;fontSize=14" parent="1" vertex="1">
          <mxGeometry x="757" y="185.5" width="190" height="80" as="geometry" />
        </mxCell>
        <mxCell id="4" value="CUERPO" style="rounded=1;fillColor=#23445D;gradientColor=none;strokeColor=none;fontColor=#FFFFFF;fontStyle=1;fontFamily=Tahoma;fontSize=14" parent="1" vertex="1">
          <mxGeometry x="1869.9999999999998" y="335.5" width="190" height="80" as="geometry" />
        </mxCell>
        <mxCell id="9" value="" style="edgeStyle=elbowEdgeStyle;elbow=vertical;strokeWidth=2;rounded=0" parent="1" target="uCeVnNwiSlFHgN-MQW42-137" edge="1">
          <mxGeometry x="337" y="215.5" width="100" height="100" as="geometry">
            <mxPoint x="852" y="265" as="sourcePoint" />
            <mxPoint x="1660" y="335" as="targetPoint" />
          </mxGeometry>
        </mxCell>
        <mxCell id="10" value="TRATAMIENTO" style="rounded=1;fillColor=#23445D;gradientColor=none;strokeColor=none;fontColor=#FFFFFF;fontStyle=1;fontFamily=Tahoma;fontSize=14" parent="1" vertex="1">
          <mxGeometry x="1480" y="335.5" width="190" height="80" as="geometry" />
        </mxCell>
        <mxCell id="12" value="BEAUTY OFERTAS" style="rounded=1;fillColor=#23445D;gradientColor=none;strokeColor=none;fontColor=#FFFFFF;fontStyle=1;fontFamily=Tahoma;fontSize=14" parent="1" vertex="1">
          <mxGeometry x="1270" y="335.5" width="190" height="80" as="geometry" />
        </mxCell>
        <mxCell id="13" value="MARCAS" style="rounded=1;fillColor=#FFCCCC;strokeColor=#A50040;fontColor=#FF6666;fontStyle=1;fontFamily=Tahoma;fontSize=14" parent="1" vertex="1">
          <mxGeometry x="190" y="335.5" width="213" height="80" as="geometry" />
        </mxCell>
        <mxCell id="25" value="ANASTASIA&#xa;BEVERLY&#xa;HILLS" style="rounded=1;fillColor=#23445D;gradientColor=none;strokeColor=none;fontColor=#FFFFFF;fontStyle=1;fontFamily=Tahoma;fontSize=14" parent="1" vertex="1">
          <mxGeometry x="-21.5" y="465.5" width="130" height="60" as="geometry" />
        </mxCell>
        <mxCell id="26" value="BENEFIT&#xa;COSMETICS" style="rounded=1;fillColor=#23445D;gradientColor=none;strokeColor=none;fontColor=#FFFFFF;fontStyle=1;fontFamily=Tahoma;fontSize=14" parent="1" vertex="1">
          <mxGeometry x="-21.5" y="555.5" width="130" height="60" as="geometry" />
        </mxCell>
        <mxCell id="27" value="BYOMA" style="rounded=1;fillColor=#23445D;gradientColor=none;strokeColor=none;fontColor=#FFFFFF;fontStyle=1;fontFamily=Tahoma;fontSize=14" parent="1" vertex="1">
          <mxGeometry x="-21.5" y="645.5" width="130" height="60" as="geometry" />
        </mxCell>
        <mxCell id="28" value="CHARLOTTE&#xa;TILBURY" style="rounded=1;fillColor=#23445D;gradientColor=none;strokeColor=none;fontColor=#FFFFFF;fontStyle=1;fontFamily=Tahoma;fontSize=14" parent="1" vertex="1">
          <mxGeometry x="-21.5" y="735.5" width="130" height="60" as="geometry" />
        </mxCell>
        <mxCell id="29" value="SOLO EN&#xa;SEPHORA" style="rounded=1;fillColor=#23445D;gradientColor=none;strokeColor=none;fontColor=#FFFFFF;fontStyle=1;fontFamily=Tahoma;fontSize=14" parent="1" vertex="1">
          <mxGeometry x="153.5" y="465.5" width="130" height="60" as="geometry" />
        </mxCell>
        <mxCell id="30" value="SEPHORA&#xa;COLLECTION" style="rounded=1;fillColor=#23445D;gradientColor=none;strokeColor=none;fontColor=#FFFFFF;fontStyle=1;fontFamily=Tahoma;fontSize=14" parent="1" vertex="1">
          <mxGeometry x="153.5" y="555.5" width="130" height="60" as="geometry" />
        </mxCell>
        <mxCell id="31" value="RARE BEAUTY" style="rounded=1;fillColor=#23445D;gradientColor=none;strokeColor=none;fontColor=#FFFFFF;fontStyle=1;fontFamily=Tahoma;fontSize=14" parent="1" vertex="1">
          <mxGeometry x="153.5" y="645.5" width="130" height="60" as="geometry" />
        </mxCell>
        <mxCell id="32" value="FENTY" style="rounded=1;fillColor=#23445D;gradientColor=none;strokeColor=none;fontColor=#FFFFFF;fontStyle=1;fontFamily=Tahoma;fontSize=14" parent="1" vertex="1">
          <mxGeometry x="153.5" y="735.5" width="130" height="60" as="geometry" />
        </mxCell>
        <mxCell id="33" value="MARCAS&#xa;PREMIUM" style="rounded=1;fillColor=#23445D;gradientColor=none;strokeColor=none;fontColor=#FFFFFF;fontStyle=1;fontFamily=Tahoma;fontSize=14" parent="1" vertex="1">
          <mxGeometry x="328.5" y="465.5" width="130" height="60" as="geometry" />
        </mxCell>
        <mxCell id="34" value="CHANNEL" style="rounded=1;fillColor=#23445D;gradientColor=none;strokeColor=none;fontColor=#FFFFFF;fontStyle=1;fontFamily=Tahoma;fontSize=14" parent="1" vertex="1">
          <mxGeometry x="328.5" y="555.5" width="130" height="60" as="geometry" />
        </mxCell>
        <mxCell id="35" value="GUERLAIN" style="rounded=1;fillColor=#23445D;gradientColor=none;strokeColor=none;fontColor=#FFFFFF;fontStyle=1;fontFamily=Tahoma;fontSize=14" parent="1" vertex="1">
          <mxGeometry x="328.5" y="645.5" width="130" height="60" as="geometry" />
        </mxCell>
        <mxCell id="36" value="MAISON&#xa;MARGIELA" style="rounded=1;fillColor=#23445D;gradientColor=none;strokeColor=none;fontColor=#FFFFFF;fontStyle=1;fontFamily=Tahoma;fontSize=14" parent="1" vertex="1">
          <mxGeometry x="328.5" y="735.5" width="130" height="60" as="geometry" />
        </mxCell>
        <mxCell id="37" value="PATH&#xa;MCGRAT&#xa;LABS" style="rounded=1;fillColor=#23445D;gradientColor=none;strokeColor=none;fontColor=#FFFFFF;fontStyle=1;fontFamily=Tahoma;fontSize=14" parent="1" vertex="1">
          <mxGeometry x="328.5" y="825.5" width="130" height="60" as="geometry" />
        </mxCell>
        <mxCell id="38" value="SISLEY" style="rounded=1;fillColor=#23445D;gradientColor=none;strokeColor=none;fontColor=#FFFFFF;fontStyle=1;fontFamily=Tahoma;fontSize=14" parent="1" vertex="1">
          <mxGeometry x="328.5" y="915.5" width="130" height="60" as="geometry" />
        </mxCell>
        <mxCell id="39" value="TOM FORD" style="rounded=1;fillColor=#23445D;gradientColor=none;strokeColor=none;fontColor=#FFFFFF;fontStyle=1;fontFamily=Tahoma;fontSize=14" parent="1" vertex="1">
          <mxGeometry x="328.5" y="1005.5" width="130" height="60" as="geometry" />
        </mxCell>
        <mxCell id="41" value="VER TODO" style="rounded=1;fillColor=#23445D;gradientColor=none;strokeColor=none;fontColor=#FFFFFF;fontStyle=1;fontFamily=Tahoma;fontSize=14" parent="1" vertex="1">
          <mxGeometry x="777" y="465.5" width="130" height="60" as="geometry" />
        </mxCell>
        <mxCell id="42" value="CALENDARIO &#xa;DE ADVIENTO&#xa;2024" style="rounded=1;fillColor=#23445D;gradientColor=none;strokeColor=none;fontColor=#FFFFFF;fontStyle=1;fontFamily=Tahoma;fontSize=14" parent="1" vertex="1">
          <mxGeometry x="777" y="555.5" width="130" height="60" as="geometry" />
        </mxCell>
        <mxCell id="43" value="NAVIDAD &#xa;BY SEPHORA&#xa;COLLECTION" style="rounded=1;fillColor=#23445D;gradientColor=none;strokeColor=none;fontColor=#FFFFFF;fontStyle=1;fontFamily=Tahoma;fontSize=14" parent="1" vertex="1">
          <mxGeometry x="777" y="645.5" width="130" height="60" as="geometry" />
        </mxCell>
        <mxCell id="44" value="SI" style="rounded=1;fillColor=#23445D;gradientColor=none;strokeColor=none;fontColor=#FFFFFF;fontStyle=1;fontFamily=Tahoma;fontSize=14" parent="1" vertex="1">
          <mxGeometry x="1217" y="455.50000000000006" width="130" height="60" as="geometry" />
        </mxCell>
        <mxCell id="45" value="Programming" style="rounded=1;fillColor=#23445D;gradientColor=none;strokeColor=none;fontColor=#FFFFFF;fontStyle=1;fontFamily=Tahoma;fontSize=14" parent="1" vertex="1">
          <mxGeometry x="1217" y="545.5" width="130" height="60" as="geometry" />
        </mxCell>
        <mxCell id="46" value="Client / Server" style="rounded=1;fillColor=#23445D;gradientColor=none;strokeColor=none;fontColor=#FFFFFF;fontStyle=1;fontFamily=Tahoma;fontSize=14" parent="1" vertex="1">
          <mxGeometry x="1217" y="635.5" width="130" height="60" as="geometry" />
        </mxCell>
        <mxCell id="47" value="Data Collection" style="rounded=1;fillColor=#23445D;gradientColor=none;strokeColor=none;fontColor=#FFFFFF;fontStyle=1;fontFamily=Tahoma;fontSize=14" parent="1" vertex="1">
          <mxGeometry x="1217" y="725.5000000000001" width="130" height="60" as="geometry" />
        </mxCell>
        <mxCell id="48" value="SSI" style="rounded=1;fillColor=#23445D;gradientColor=none;strokeColor=none;fontColor=#FFFFFF;fontStyle=1;fontFamily=Tahoma;fontSize=14" parent="1" vertex="1">
          <mxGeometry x="1392" y="455.50000000000006" width="130" height="60" as="geometry" />
        </mxCell>
        <mxCell id="49" value="Programming" style="rounded=1;fillColor=#23445D;gradientColor=none;strokeColor=none;fontColor=#FFFFFF;fontStyle=1;fontFamily=Tahoma;fontSize=14" parent="1" vertex="1">
          <mxGeometry x="1392" y="545.5" width="130" height="60" as="geometry" />
        </mxCell>
        <mxCell id="50" value="Client / Server" style="rounded=1;fillColor=#23445D;gradientColor=none;strokeColor=none;fontColor=#FFFFFF;fontStyle=1;fontFamily=Tahoma;fontSize=14" parent="1" vertex="1">
          <mxGeometry x="1392" y="635.5" width="130" height="60" as="geometry" />
        </mxCell>
        <mxCell id="51" value="Data Collection" style="rounded=1;fillColor=#23445D;gradientColor=none;strokeColor=none;fontColor=#FFFFFF;fontStyle=1;fontFamily=Tahoma;fontSize=14" parent="1" vertex="1">
          <mxGeometry x="1392" y="725.5000000000001" width="130" height="60" as="geometry" />
        </mxCell>
        <mxCell id="52" value="XMI" style="rounded=1;fillColor=#23445D;gradientColor=none;strokeColor=none;fontColor=#FFFFFF;fontStyle=1;fontFamily=Tahoma;fontSize=14" parent="1" vertex="1">
          <mxGeometry x="1567" y="455.50000000000006" width="130" height="60" as="geometry" />
        </mxCell>
        <mxCell id="53" value="Programming" style="rounded=1;fillColor=#23445D;gradientColor=none;strokeColor=none;fontColor=#FFFFFF;fontStyle=1;fontFamily=Tahoma;fontSize=14" parent="1" vertex="1">
          <mxGeometry x="1567" y="545.5" width="130" height="60" as="geometry" />
        </mxCell>
        <mxCell id="54" value="HTTP" style="rounded=1;fillColor=#23445D;gradientColor=none;strokeColor=none;fontColor=#FFFFFF;fontStyle=1;fontFamily=Tahoma;fontSize=14" parent="1" vertex="1">
          <mxGeometry x="1567" y="635.5" width="130" height="60" as="geometry" />
        </mxCell>
        <mxCell id="55" value="HTS" style="rounded=1;fillColor=#23445D;gradientColor=none;strokeColor=none;fontColor=#FFFFFF;fontStyle=1;fontFamily=Tahoma;fontSize=14" parent="1" vertex="1">
          <mxGeometry x="1567" y="725.5000000000001" width="130" height="60" as="geometry" />
        </mxCell>
        <mxCell id="56" value="CVS" style="rounded=1;fillColor=#23445D;gradientColor=none;strokeColor=none;fontColor=#FFFFFF;fontStyle=1;fontFamily=Tahoma;fontSize=14" parent="1" vertex="1">
          <mxGeometry x="1567" y="815.5000000000001" width="130" height="60" as="geometry" />
        </mxCell>
        <mxCell id="57" value="Client / Server" style="rounded=1;fillColor=#23445D;gradientColor=none;strokeColor=none;fontColor=#FFFFFF;fontStyle=1;fontFamily=Tahoma;fontSize=14" parent="1" vertex="1">
          <mxGeometry x="1567" y="905.5000000000001" width="130" height="60" as="geometry" />
        </mxCell>
        <mxCell id="58" value="Data Collection" style="rounded=1;fillColor=#23445D;gradientColor=none;strokeColor=none;fontColor=#FFFFFF;fontStyle=1;fontFamily=Tahoma;fontSize=14" parent="1" vertex="1">
          <mxGeometry x="1567" y="995.5000000000001" width="130" height="60" as="geometry" />
        </mxCell>
        <mxCell id="59" value="" style="edgeStyle=elbowEdgeStyle;elbow=vertical;strokeWidth=2;rounded=0" parent="1" source="2" target="12" edge="1">
          <mxGeometry x="347" y="225.5" width="100" height="100" as="geometry">
            <mxPoint x="861.9999999999999" y="275.5" as="sourcePoint" />
            <mxPoint x="1466.9999999999998" y="345.5" as="targetPoint" />
          </mxGeometry>
        </mxCell>
        <mxCell id="61" value="" style="edgeStyle=elbowEdgeStyle;elbow=vertical;strokeWidth=2;rounded=0" parent="1" source="2" target="13" edge="1">
          <mxGeometry x="-23" y="135.5" width="100" height="100" as="geometry">
            <mxPoint x="-23" y="235.5" as="sourcePoint" />
            <mxPoint x="77" y="135.5" as="targetPoint" />
            <Array as="points">
              <mxPoint x="420" y="301" />
            </Array>
          </mxGeometry>
        </mxCell>
        <mxCell id="76" value="" style="edgeStyle=elbowEdgeStyle;elbow=horizontal;strokeWidth=2;rounded=0" parent="1" source="33" target="34" edge="1">
          <mxGeometry x="-23" y="135.5" width="100" height="100" as="geometry">
            <mxPoint x="-461.5" y="245.5" as="sourcePoint" />
            <mxPoint x="-361.5" y="145.5" as="targetPoint" />
            <Array as="points">
              <mxPoint x="308.5" y="545.5" />
            </Array>
          </mxGeometry>
        </mxCell>
        <mxCell id="77" value="" style="edgeStyle=elbowEdgeStyle;elbow=horizontal;strokeWidth=2;rounded=0" parent="1" source="33" target="35" edge="1">
          <mxGeometry x="-23" y="135.5" width="100" height="100" as="geometry">
            <mxPoint x="-461.5" y="245.5" as="sourcePoint" />
            <mxPoint x="-361.5" y="145.5" as="targetPoint" />
            <Array as="points">
              <mxPoint x="308.5" y="585.5" />
            </Array>
          </mxGeometry>
        </mxCell>
        <mxCell id="78" value="" style="edgeStyle=elbowEdgeStyle;elbow=horizontal;strokeWidth=2;rounded=0" parent="1" source="33" target="36" edge="1">
          <mxGeometry x="-23" y="135.5" width="100" height="100" as="geometry">
            <mxPoint x="-461.5" y="245.5" as="sourcePoint" />
            <mxPoint x="-361.5" y="145.5" as="targetPoint" />
            <Array as="points">
              <mxPoint x="308.5" y="635.5" />
            </Array>
          </mxGeometry>
        </mxCell>
        <mxCell id="79" value="" style="edgeStyle=elbowEdgeStyle;elbow=horizontal;strokeWidth=2;rounded=0" parent="1" source="33" target="37" edge="1">
          <mxGeometry x="-23" y="135.5" width="100" height="100" as="geometry">
            <mxPoint x="-461.5" y="245.5" as="sourcePoint" />
            <mxPoint x="-361.5" y="145.5" as="targetPoint" />
            <Array as="points">
              <mxPoint x="308.5" y="675.5" />
            </Array>
          </mxGeometry>
        </mxCell>
        <mxCell id="80" value="" style="edgeStyle=elbowEdgeStyle;elbow=horizontal;strokeWidth=2;rounded=0" parent="1" source="33" target="38" edge="1">
          <mxGeometry x="-23" y="135.5" width="100" height="100" as="geometry">
            <mxPoint x="-461.5" y="245.5" as="sourcePoint" />
            <mxPoint x="-361.5" y="145.5" as="targetPoint" />
            <Array as="points">
              <mxPoint x="308.5" y="715.5" />
            </Array>
          </mxGeometry>
        </mxCell>
        <mxCell id="81" value="" style="edgeStyle=elbowEdgeStyle;elbow=horizontal;strokeWidth=2;rounded=0" parent="1" source="33" target="39" edge="1">
          <mxGeometry x="-23" y="135.5" width="100" height="100" as="geometry">
            <mxPoint x="-461.5" y="245.5" as="sourcePoint" />
            <mxPoint x="-361.5" y="145.5" as="targetPoint" />
            <Array as="points">
              <mxPoint x="308.5" y="765.5" />
            </Array>
          </mxGeometry>
        </mxCell>
        <mxCell id="82" value="" style="edgeStyle=elbowEdgeStyle;elbow=horizontal;strokeWidth=2;rounded=0" parent="1" source="41" target="42" edge="1">
          <mxGeometry x="-23" y="135.5" width="100" height="100" as="geometry">
            <mxPoint x="-223" y="245.5" as="sourcePoint" />
            <mxPoint x="-123" y="145.5" as="targetPoint" />
            <Array as="points">
              <mxPoint x="757" y="545.5" />
            </Array>
          </mxGeometry>
        </mxCell>
        <mxCell id="83" value="" style="edgeStyle=elbowEdgeStyle;elbow=horizontal;strokeWidth=2;rounded=0" parent="1" source="41" target="43" edge="1">
          <mxGeometry x="-23" y="135.5" width="100" height="100" as="geometry">
            <mxPoint x="-223" y="245.5" as="sourcePoint" />
            <mxPoint x="-123" y="145.5" as="targetPoint" />
            <Array as="points">
              <mxPoint x="757" y="595.5" />
            </Array>
          </mxGeometry>
        </mxCell>
        <mxCell id="84" value="" style="edgeStyle=elbowEdgeStyle;elbow=horizontal;strokeWidth=2;rounded=0" parent="1" source="44" target="45" edge="1">
          <mxGeometry x="-23" y="135.5" width="100" height="100" as="geometry">
            <mxPoint x="-23" y="235.5" as="sourcePoint" />
            <mxPoint x="77" y="135.5" as="targetPoint" />
            <Array as="points">
              <mxPoint x="1197" y="545.5" />
            </Array>
          </mxGeometry>
        </mxCell>
        <mxCell id="85" value="" style="edgeStyle=elbowEdgeStyle;elbow=horizontal;strokeWidth=2;rounded=0" parent="1" source="44" target="46" edge="1">
          <mxGeometry x="-23" y="135.5" width="100" height="100" as="geometry">
            <mxPoint x="-23" y="235.5" as="sourcePoint" />
            <mxPoint x="77" y="135.5" as="targetPoint" />
            <Array as="points">
              <mxPoint x="1197" y="575.5" />
            </Array>
          </mxGeometry>
        </mxCell>
        <mxCell id="86" value="" style="edgeStyle=elbowEdgeStyle;elbow=horizontal;strokeWidth=2;rounded=0" parent="1" source="44" target="47" edge="1">
          <mxGeometry x="-23" y="135.5" width="100" height="100" as="geometry">
            <mxPoint x="-23" y="235.5" as="sourcePoint" />
            <mxPoint x="77" y="135.5" as="targetPoint" />
            <Array as="points">
              <mxPoint x="1197" y="625.5" />
            </Array>
          </mxGeometry>
        </mxCell>
        <mxCell id="87" value="" style="edgeStyle=elbowEdgeStyle;elbow=horizontal;strokeWidth=2;rounded=0" parent="1" source="48" target="49" edge="1">
          <mxGeometry x="-23" y="135.5" width="100" height="100" as="geometry">
            <mxPoint x="-23" y="235.5" as="sourcePoint" />
            <mxPoint x="77" y="135.5" as="targetPoint" />
            <Array as="points">
              <mxPoint x="1367" y="535.5" />
            </Array>
          </mxGeometry>
        </mxCell>
        <mxCell id="88" value="" style="edgeStyle=elbowEdgeStyle;elbow=horizontal;strokeWidth=2;rounded=0" parent="1" source="48" target="50" edge="1">
          <mxGeometry x="-23" y="135.5" width="100" height="100" as="geometry">
            <mxPoint x="-23" y="235.5" as="sourcePoint" />
            <mxPoint x="77" y="135.5" as="targetPoint" />
            <Array as="points">
              <mxPoint x="1367" y="595.5" />
            </Array>
          </mxGeometry>
        </mxCell>
        <mxCell id="89" value="" style="edgeStyle=elbowEdgeStyle;elbow=horizontal;strokeWidth=2;rounded=0" parent="1" source="48" target="51" edge="1">
          <mxGeometry x="-23" y="135.5" width="100" height="100" as="geometry">
            <mxPoint x="-23" y="235.5" as="sourcePoint" />
            <mxPoint x="77" y="135.5" as="targetPoint" />
            <Array as="points">
              <mxPoint x="1367" y="625.5" />
            </Array>
          </mxGeometry>
        </mxCell>
        <mxCell id="90" value="" style="edgeStyle=elbowEdgeStyle;elbow=horizontal;strokeWidth=2;rounded=0" parent="1" source="52" target="53" edge="1">
          <mxGeometry x="-23" y="135.5" width="100" height="100" as="geometry">
            <mxPoint x="-23" y="235.5" as="sourcePoint" />
            <mxPoint x="77" y="135.5" as="targetPoint" />
            <Array as="points">
              <mxPoint x="1547" y="535.5" />
            </Array>
          </mxGeometry>
        </mxCell>
        <mxCell id="91" value="" style="edgeStyle=elbowEdgeStyle;elbow=horizontal;strokeWidth=2;rounded=0" parent="1" source="52" target="54" edge="1">
          <mxGeometry x="-23" y="135.5" width="100" height="100" as="geometry">
            <mxPoint x="-23" y="235.5" as="sourcePoint" />
            <mxPoint x="77" y="135.5" as="targetPoint" />
            <Array as="points">
              <mxPoint x="1547" y="575.5" />
            </Array>
          </mxGeometry>
        </mxCell>
        <mxCell id="92" value="" style="edgeStyle=elbowEdgeStyle;elbow=horizontal;strokeWidth=2;rounded=0" parent="1" source="52" target="55" edge="1">
          <mxGeometry x="-23" y="135.5" width="100" height="100" as="geometry">
            <mxPoint x="-23" y="235.5" as="sourcePoint" />
            <mxPoint x="77" y="135.5" as="targetPoint" />
            <Array as="points">
              <mxPoint x="1547" y="625.5" />
            </Array>
          </mxGeometry>
        </mxCell>
        <mxCell id="93" value="" style="edgeStyle=elbowEdgeStyle;elbow=horizontal;strokeWidth=2;rounded=0" parent="1" source="52" target="56" edge="1">
          <mxGeometry x="-23" y="135.5" width="100" height="100" as="geometry">
            <mxPoint x="-23" y="235.5" as="sourcePoint" />
            <mxPoint x="77" y="135.5" as="targetPoint" />
            <Array as="points">
              <mxPoint x="1547" y="675.5" />
            </Array>
          </mxGeometry>
        </mxCell>
        <mxCell id="94" value="" style="edgeStyle=elbowEdgeStyle;elbow=horizontal;strokeWidth=2;rounded=0" parent="1" source="52" target="57" edge="1">
          <mxGeometry x="-23" y="135.5" width="100" height="100" as="geometry">
            <mxPoint x="-23" y="235.5" as="sourcePoint" />
            <mxPoint x="77" y="135.5" as="targetPoint" />
            <Array as="points">
              <mxPoint x="1547" y="725.5" />
            </Array>
          </mxGeometry>
        </mxCell>
        <mxCell id="95" value="" style="edgeStyle=elbowEdgeStyle;elbow=horizontal;strokeWidth=2;rounded=0" parent="1" source="52" target="58" edge="1">
          <mxGeometry x="-23" y="135.5" width="100" height="100" as="geometry">
            <mxPoint x="-23" y="235.5" as="sourcePoint" />
            <mxPoint x="77" y="135.5" as="targetPoint" />
            <Array as="points">
              <mxPoint x="1547" y="765.5" />
            </Array>
          </mxGeometry>
        </mxCell>
        <mxCell id="100" value="" style="edgeStyle=elbowEdgeStyle;elbow=vertical;strokeWidth=2;rounded=0;entryX=0.5;entryY=0;entryDx=0;entryDy=0;" parent="1" edge="1">
          <mxGeometry x="-23" y="135.5" width="100" height="100" as="geometry">
            <mxPoint x="300" y="420" as="sourcePoint" />
            <mxPoint x="44.5" y="465.5" as="targetPoint" />
            <Array as="points">
              <mxPoint x="178" y="444" />
            </Array>
          </mxGeometry>
        </mxCell>
        <mxCell id="102" value="" style="edgeStyle=elbowEdgeStyle;elbow=vertical;strokeWidth=2;rounded=0;entryX=0.137;entryY=0.079;entryDx=0;entryDy=0;entryPerimeter=0;" parent="1" edge="1">
          <mxGeometry x="-23" y="135.5" width="100" height="100" as="geometry">
            <mxPoint x="300" y="424" as="sourcePoint" />
            <mxPoint x="220.0000000000004" y="465.5" as="targetPoint" />
            <Array as="points" />
          </mxGeometry>
        </mxCell>
        <mxCell id="103" value="" style="edgeStyle=elbowEdgeStyle;elbow=vertical;strokeWidth=2;rounded=0" parent="1" source="10" target="41" edge="1">
          <mxGeometry x="-23" y="135.5" width="100" height="100" as="geometry">
            <mxPoint x="-23" y="235.5" as="sourcePoint" />
            <mxPoint x="77" y="135.5" as="targetPoint" />
          </mxGeometry>
        </mxCell>
        <mxCell id="104" value="" style="edgeStyle=elbowEdgeStyle;elbow=vertical;strokeWidth=2;rounded=0" parent="1" source="4" target="48" edge="1">
          <mxGeometry x="-23" y="135.5" width="100" height="100" as="geometry">
            <mxPoint x="-23" y="235.5" as="sourcePoint" />
            <mxPoint x="77" y="135.5" as="targetPoint" />
          </mxGeometry>
        </mxCell>
        <mxCell id="105" value="" style="edgeStyle=elbowEdgeStyle;elbow=vertical;strokeWidth=2;rounded=0" parent="1" source="4" target="44" edge="1">
          <mxGeometry x="-23" y="135.5" width="100" height="100" as="geometry">
            <mxPoint x="-23" y="235.5" as="sourcePoint" />
            <mxPoint x="77" y="135.5" as="targetPoint" />
          </mxGeometry>
        </mxCell>
        <mxCell id="106" value="" style="edgeStyle=elbowEdgeStyle;elbow=vertical;strokeWidth=2;rounded=0" parent="1" source="4" target="52" edge="1">
          <mxGeometry x="-23" y="135.5" width="100" height="100" as="geometry">
            <mxPoint x="-23" y="235.5" as="sourcePoint" />
            <mxPoint x="77" y="135.5" as="targetPoint" />
          </mxGeometry>
        </mxCell>
        <mxCell id="uCeVnNwiSlFHgN-MQW42-129" value="" style="edgeStyle=elbowEdgeStyle;elbow=vertical;strokeWidth=2;rounded=0" parent="1" edge="1">
          <mxGeometry x="347" y="225.5" width="100" height="100" as="geometry">
            <mxPoint x="417" y="300" as="sourcePoint" />
            <mxPoint x="417" y="335.5" as="targetPoint" />
            <Array as="points">
              <mxPoint x="137" y="310" />
            </Array>
          </mxGeometry>
        </mxCell>
        <mxCell id="uCeVnNwiSlFHgN-MQW42-131" value="NUEVO" style="rounded=1;fillColor=#23445D;gradientColor=none;strokeColor=none;fontColor=#FFFFFF;fontStyle=1;fontFamily=Tahoma;fontSize=14" parent="1" vertex="1">
          <mxGeometry x="767" y="335.5" width="190" height="80" as="geometry" />
        </mxCell>
        <mxCell id="uCeVnNwiSlFHgN-MQW42-132" value="MAQUILLAJE" style="rounded=1;fillColor=#23445D;gradientColor=none;strokeColor=none;fontColor=#FFFFFF;fontStyle=1;fontFamily=Tahoma;fontSize=14" parent="1" vertex="1">
          <mxGeometry x="1362" y="335.5" width="190" height="80" as="geometry" />
        </mxCell>
        <mxCell id="uCeVnNwiSlFHgN-MQW42-133" value="PERFUME" style="rounded=1;fillColor=#23445D;gradientColor=none;strokeColor=none;fontColor=#FFFFFF;fontStyle=1;fontFamily=Tahoma;fontSize=14" parent="1" vertex="1">
          <mxGeometry x="1590" y="335.5" width="190" height="80" as="geometry" />
        </mxCell>
        <mxCell id="uCeVnNwiSlFHgN-MQW42-134" value="CABELLO" style="rounded=1;fillColor=#23445D;gradientColor=none;strokeColor=none;fontColor=#FFFFFF;fontStyle=1;fontFamily=Tahoma;fontSize=14" parent="1" vertex="1">
          <mxGeometry x="1720" y="335.5" width="190" height="80" as="geometry" />
        </mxCell>
        <mxCell id="uCeVnNwiSlFHgN-MQW42-135" value="SEPHORA&#xa;COLLECTION" style="rounded=1;fillColor=#23445D;gradientColor=none;strokeColor=none;fontColor=#FFFFFF;fontStyle=1;fontFamily=Tahoma;fontSize=14" parent="1" vertex="1">
          <mxGeometry x="1950" y="335.5" width="190" height="80" as="geometry" />
        </mxCell>
        <mxCell id="uCeVnNwiSlFHgN-MQW42-136" value="MINIS" style="rounded=1;fillColor=#23445D;gradientColor=none;strokeColor=none;fontColor=#FFFFFF;fontStyle=1;fontFamily=Tahoma;fontSize=14" parent="1" vertex="1">
          <mxGeometry x="2070" y="335.5" width="190" height="80" as="geometry" />
        </mxCell>
        <mxCell id="uCeVnNwiSlFHgN-MQW42-137" value="SERVICIOS" style="rounded=1;fillColor=#23445D;gradientColor=none;strokeColor=none;fontColor=#FFFFFF;fontStyle=1;fontFamily=Tahoma;fontSize=14" parent="1" vertex="1">
          <mxGeometry x="2210" y="335.5" width="190" height="80" as="geometry" />
        </mxCell>
        <mxCell id="uCeVnNwiSlFHgN-MQW42-141" value="DRUNK &#xa;ELEPHANT" style="rounded=1;fillColor=#23445D;gradientColor=none;strokeColor=none;fontColor=#FFFFFF;fontStyle=1;fontFamily=Tahoma;fontSize=14" parent="1" vertex="1">
          <mxGeometry x="-20" y="825.5" width="130" height="60" as="geometry" />
        </mxCell>
        <mxCell id="uCeVnNwiSlFHgN-MQW42-142" value="FENTY&#xa;BEAUTY" style="rounded=1;fillColor=#23445D;gradientColor=none;strokeColor=none;fontColor=#FFFFFF;fontStyle=1;fontFamily=Tahoma;fontSize=14" parent="1" vertex="1">
          <mxGeometry x="-20" y="915.5" width="130" height="60" as="geometry" />
        </mxCell>
        <mxCell id="uCeVnNwiSlFHgN-MQW42-143" value="GLOW&#xa;RECIPE" style="rounded=1;fillColor=#23445D;gradientColor=none;strokeColor=none;fontColor=#FFFFFF;fontStyle=1;fontFamily=Tahoma;fontSize=14" parent="1" vertex="1">
          <mxGeometry x="-20" y="1005.5" width="130" height="60" as="geometry" />
        </mxCell>
        <mxCell id="uCeVnNwiSlFHgN-MQW42-144" value="HUDA BEAUTY" style="rounded=1;fillColor=#23445D;gradientColor=none;strokeColor=none;fontColor=#FFFFFF;fontStyle=1;fontFamily=Tahoma;fontSize=14" parent="1" vertex="1">
          <mxGeometry x="-20" y="1100" width="130" height="60" as="geometry" />
        </mxCell>
        <mxCell id="uCeVnNwiSlFHgN-MQW42-145" value="LANEIGE" style="rounded=1;fillColor=#23445D;gradientColor=none;strokeColor=none;fontColor=#FFFFFF;fontStyle=1;fontFamily=Tahoma;fontSize=14" parent="1" vertex="1">
          <mxGeometry x="-20" y="1190" width="130" height="60" as="geometry" />
        </mxCell>
        <mxCell id="uCeVnNwiSlFHgN-MQW42-146" value="MAKEUP &#xa;BY MARIO" style="rounded=1;fillColor=#23445D;gradientColor=none;strokeColor=none;fontColor=#FFFFFF;fontStyle=1;fontFamily=Tahoma;fontSize=14" parent="1" vertex="1">
          <mxGeometry x="-20" y="1280" width="130" height="60" as="geometry" />
        </mxCell>
        <mxCell id="SnyUNI3W6FsP-a_xVLL4-124" value="" style="edgeStyle=elbowEdgeStyle;elbow=horizontal;strokeWidth=2;rounded=0;" edge="1" parent="1">
          <mxGeometry x="-23" y="135.5" width="100" height="100" as="geometry">
            <mxPoint x="150" y="495.5" as="sourcePoint" />
            <mxPoint x="150" y="770" as="targetPoint" />
            <Array as="points">
              <mxPoint x="129.5" y="765" />
            </Array>
          </mxGeometry>
        </mxCell>
        <mxCell id="SnyUNI3W6FsP-a_xVLL4-125" value="" style="edgeStyle=elbowEdgeStyle;elbow=horizontal;strokeWidth=2;rounded=0;entryX=0.001;entryY=0.177;entryDx=0;entryDy=0;entryPerimeter=0;" edge="1" parent="1" target="118">
          <mxGeometry x="-23" y="135.5" width="100" height="100" as="geometry">
            <mxPoint x="150" y="495.5" as="sourcePoint" />
            <mxPoint x="150" y="1036" as="targetPoint" />
            <Array as="points">
              <mxPoint x="129.5" y="765" />
            </Array>
          </mxGeometry>
        </mxCell>
        <mxCell id="SnyUNI3W6FsP-a_xVLL4-126" value="" style="edgeStyle=elbowEdgeStyle;elbow=horizontal;strokeWidth=2;rounded=0;entryX=0;entryY=0.5;entryDx=0;entryDy=0;" edge="1" parent="1" target="30">
          <mxGeometry x="-23" y="135.5" width="100" height="100" as="geometry">
            <mxPoint x="150" y="495.5" as="sourcePoint" />
            <mxPoint x="150" y="1035.5" as="targetPoint" />
            <Array as="points">
              <mxPoint x="129.5" y="765" />
            </Array>
          </mxGeometry>
        </mxCell>
        <mxCell id="SnyUNI3W6FsP-a_xVLL4-128" value="" style="edgeStyle=elbowEdgeStyle;elbow=vertical;strokeWidth=2;rounded=0;exitX=0.39;exitY=1.056;exitDx=0;exitDy=0;exitPerimeter=0;" edge="1" parent="1">
          <mxGeometry x="-23" y="135.5" width="100" height="100" as="geometry">
            <mxPoint x="42.91000000000017" y="524.98" as="sourcePoint" />
            <mxPoint x="43.41" y="555.5" as="targetPoint" />
          </mxGeometry>
        </mxCell>
        <mxCell id="SnyUNI3W6FsP-a_xVLL4-134" value="" style="edgeStyle=elbowEdgeStyle;elbow=vertical;strokeWidth=2;rounded=0;exitX=0.39;exitY=1.056;exitDx=0;exitDy=0;exitPerimeter=0;" edge="1" parent="1">
          <mxGeometry x="-23" y="135.5" width="100" height="100" as="geometry">
            <mxPoint x="42.91000000000017" y="614.98" as="sourcePoint" />
            <mxPoint x="43.41" y="645.5" as="targetPoint" />
          </mxGeometry>
        </mxCell>
        <mxCell id="SnyUNI3W6FsP-a_xVLL4-135" value="" style="edgeStyle=elbowEdgeStyle;elbow=vertical;strokeWidth=2;rounded=0;exitX=0.39;exitY=1.056;exitDx=0;exitDy=0;exitPerimeter=0;" edge="1" parent="1">
          <mxGeometry x="-23" y="135.5" width="100" height="100" as="geometry">
            <mxPoint x="42.91000000000017" y="704.98" as="sourcePoint" />
            <mxPoint x="43.41" y="735.5" as="targetPoint" />
          </mxGeometry>
        </mxCell>
        <mxCell id="SnyUNI3W6FsP-a_xVLL4-136" value="" style="edgeStyle=elbowEdgeStyle;elbow=vertical;strokeWidth=2;rounded=0;exitX=0.39;exitY=1.056;exitDx=0;exitDy=0;exitPerimeter=0;" edge="1" parent="1">
          <mxGeometry x="-23" y="135.5" width="100" height="100" as="geometry">
            <mxPoint x="42.91000000000017" y="795.5" as="sourcePoint" />
            <mxPoint x="43.41" y="826.02" as="targetPoint" />
          </mxGeometry>
        </mxCell>
        <mxCell id="SnyUNI3W6FsP-a_xVLL4-137" value="" style="edgeStyle=elbowEdgeStyle;elbow=vertical;strokeWidth=2;rounded=0;exitX=0.39;exitY=1.056;exitDx=0;exitDy=0;exitPerimeter=0;" edge="1" parent="1">
          <mxGeometry x="-23" y="135.5" width="100" height="100" as="geometry">
            <mxPoint x="44.41000000000017" y="885.5" as="sourcePoint" />
            <mxPoint x="44.91" y="916.02" as="targetPoint" />
          </mxGeometry>
        </mxCell>
        <mxCell id="SnyUNI3W6FsP-a_xVLL4-138" value="" style="edgeStyle=elbowEdgeStyle;elbow=vertical;strokeWidth=2;rounded=0;exitX=0.39;exitY=1.056;exitDx=0;exitDy=0;exitPerimeter=0;" edge="1" parent="1">
          <mxGeometry x="-23" y="135.5" width="100" height="100" as="geometry">
            <mxPoint x="44.41000000000017" y="975.5" as="sourcePoint" />
            <mxPoint x="44.91" y="1006.02" as="targetPoint" />
          </mxGeometry>
        </mxCell>
        <mxCell id="SnyUNI3W6FsP-a_xVLL4-139" value="" style="edgeStyle=elbowEdgeStyle;elbow=vertical;strokeWidth=2;rounded=0;exitX=0.39;exitY=1.056;exitDx=0;exitDy=0;exitPerimeter=0;" edge="1" parent="1">
          <mxGeometry x="-23" y="135.5" width="100" height="100" as="geometry">
            <mxPoint x="44.41000000000017" y="1065.5" as="sourcePoint" />
            <mxPoint x="44.91" y="1096.02" as="targetPoint" />
          </mxGeometry>
        </mxCell>
        <mxCell id="SnyUNI3W6FsP-a_xVLL4-140" value="" style="edgeStyle=elbowEdgeStyle;elbow=vertical;strokeWidth=2;rounded=0;exitX=0.39;exitY=1.056;exitDx=0;exitDy=0;exitPerimeter=0;" edge="1" parent="1">
          <mxGeometry x="-23" y="135.5" width="100" height="100" as="geometry">
            <mxPoint x="44.41000000000017" y="1160" as="sourcePoint" />
            <mxPoint x="44.91" y="1190.52" as="targetPoint" />
          </mxGeometry>
        </mxCell>
        <mxCell id="SnyUNI3W6FsP-a_xVLL4-141" value="" style="edgeStyle=elbowEdgeStyle;elbow=vertical;strokeWidth=2;rounded=0;exitX=0.39;exitY=1.056;exitDx=0;exitDy=0;exitPerimeter=0;" edge="1" parent="1">
          <mxGeometry x="-23" y="135.5" width="100" height="100" as="geometry">
            <mxPoint x="44.41000000000017" y="1250" as="sourcePoint" />
            <mxPoint x="44.91" y="1280.52" as="targetPoint" />
          </mxGeometry>
        </mxCell>
        <mxCell id="SnyUNI3W6FsP-a_xVLL4-142" value="" style="edgeStyle=elbowEdgeStyle;elbow=vertical;strokeWidth=2;rounded=0;exitX=0.39;exitY=1.056;exitDx=0;exitDy=0;exitPerimeter=0;" edge="1" parent="1">
          <mxGeometry x="-23" y="135.5" width="100" height="100" as="geometry">
            <mxPoint x="44.41000000000017" y="1610" as="sourcePoint" />
            <mxPoint x="44.91" y="1640.52" as="targetPoint" />
          </mxGeometry>
        </mxCell>
        <mxCell id="SnyUNI3W6FsP-a_xVLL4-143" value="" style="edgeStyle=elbowEdgeStyle;elbow=vertical;strokeWidth=2;rounded=0;exitX=0.39;exitY=1.056;exitDx=0;exitDy=0;exitPerimeter=0;" edge="1" parent="1">
          <mxGeometry x="-23" y="135.5" width="100" height="100" as="geometry">
            <mxPoint x="44.41000000000017" y="1520" as="sourcePoint" />
            <mxPoint x="44.91" y="1550.52" as="targetPoint" />
          </mxGeometry>
        </mxCell>
        <mxCell id="SnyUNI3W6FsP-a_xVLL4-144" value="" style="edgeStyle=elbowEdgeStyle;elbow=vertical;strokeWidth=2;rounded=0;exitX=0.39;exitY=1.056;exitDx=0;exitDy=0;exitPerimeter=0;" edge="1" parent="1">
          <mxGeometry x="-23" y="135.5" width="100" height="100" as="geometry">
            <mxPoint x="42.91000000000017" y="1430" as="sourcePoint" />
            <mxPoint x="43.41" y="1460.52" as="targetPoint" />
          </mxGeometry>
        </mxCell>
        <mxCell id="SnyUNI3W6FsP-a_xVLL4-145" value="" style="edgeStyle=elbowEdgeStyle;elbow=vertical;strokeWidth=2;rounded=0;exitX=0.39;exitY=1.056;exitDx=0;exitDy=0;exitPerimeter=0;" edge="1" parent="1">
          <mxGeometry x="-23" y="135.5" width="100" height="100" as="geometry">
            <mxPoint x="42.91000000000017" y="1340" as="sourcePoint" />
            <mxPoint x="43.41" y="1370.52" as="targetPoint" />
          </mxGeometry>
        </mxCell>
        <mxCell id="SnyUNI3W6FsP-a_xVLL4-146" value="RARE BEAUTY" style="rounded=1;fillColor=#23445D;gradientColor=none;strokeColor=none;fontColor=#FFFFFF;fontStyle=1;fontFamily=Tahoma;fontSize=14" vertex="1" parent="1">
          <mxGeometry x="-20" y="1370" width="130" height="60" as="geometry" />
        </mxCell>
        <mxCell id="SnyUNI3W6FsP-a_xVLL4-147" value="SEPHORA&#xa;COLLECTION" style="rounded=1;fillColor=#23445D;gradientColor=none;strokeColor=none;fontColor=#FFFFFF;fontStyle=1;fontFamily=Tahoma;fontSize=14" vertex="1" parent="1">
          <mxGeometry x="-21.5" y="1460" width="130" height="60" as="geometry" />
        </mxCell>
        <mxCell id="SnyUNI3W6FsP-a_xVLL4-148" value="SOL DE&#xa;JANEIRO" style="rounded=1;fillColor=#23445D;gradientColor=none;strokeColor=none;fontColor=#FFFFFF;fontStyle=1;fontFamily=Tahoma;fontSize=14" vertex="1" parent="1">
          <mxGeometry x="-20" y="1550" width="130" height="60" as="geometry" />
        </mxCell>
        <mxCell id="SnyUNI3W6FsP-a_xVLL4-149" value="TARTE" style="rounded=1;fillColor=#23445D;gradientColor=none;strokeColor=none;fontColor=#FFFFFF;fontStyle=1;fontFamily=Tahoma;fontSize=14" vertex="1" parent="1">
          <mxGeometry x="-20" y="1640" width="130" height="60" as="geometry" />
        </mxCell>
        <mxCell id="SnyUNI3W6FsP-a_xVLL4-150" value="TOO FACED" style="rounded=1;fillColor=#23445D;gradientColor=none;strokeColor=none;fontColor=#FFFFFF;fontStyle=1;fontFamily=Tahoma;fontSize=14" vertex="1" parent="1">
          <mxGeometry x="-20" y="1820" width="130" height="60" as="geometry" />
        </mxCell>
        <mxCell id="SnyUNI3W6FsP-a_xVLL4-151" value="THE ORDINARY" style="rounded=1;fillColor=#23445D;gradientColor=none;strokeColor=none;fontColor=#FFFFFF;fontStyle=1;fontFamily=Tahoma;fontSize=14" vertex="1" parent="1">
          <mxGeometry x="-20" y="1730" width="130" height="60" as="geometry" />
        </mxCell>
        <mxCell id="SnyUNI3W6FsP-a_xVLL4-152" value="" style="edgeStyle=elbowEdgeStyle;elbow=vertical;strokeWidth=2;rounded=0;exitX=0.39;exitY=1.056;exitDx=0;exitDy=0;exitPerimeter=0;" edge="1" parent="1">
          <mxGeometry x="-23" y="135.5" width="100" height="100" as="geometry">
            <mxPoint x="44.41000000000017" y="1700" as="sourcePoint" />
            <mxPoint x="44.91" y="1730.52" as="targetPoint" />
          </mxGeometry>
        </mxCell>
        <mxCell id="SnyUNI3W6FsP-a_xVLL4-153" value="" style="edgeStyle=elbowEdgeStyle;elbow=vertical;strokeWidth=2;rounded=0;exitX=0.39;exitY=1.056;exitDx=0;exitDy=0;exitPerimeter=0;" edge="1" parent="1">
          <mxGeometry x="-23" y="135.5" width="100" height="100" as="geometry">
            <mxPoint x="44.41000000000017" y="1790" as="sourcePoint" />
            <mxPoint x="44.91" y="1820.52" as="targetPoint" />
          </mxGeometry>
        </mxCell>
        <mxCell id="SnyUNI3W6FsP-a_xVLL4-154" value="" style="edgeStyle=elbowEdgeStyle;elbow=vertical;strokeWidth=2;rounded=0;exitX=0.138;exitY=0.965;exitDx=0;exitDy=0;exitPerimeter=0;" edge="1" parent="1" source="122">
          <mxGeometry x="-23" y="135.5" width="100" height="100" as="geometry">
            <mxPoint x="215.00000000000037" y="423.0000000000001" as="sourcePoint" />
            <mxPoint x="392.4" y="462.6" as="targetPoint" />
            <Array as="points">
              <mxPoint x="351" y="444" />
            </Array>
          </mxGeometry>
        </mxCell>
        <mxCell id="SnyUNI3W6FsP-a_xVLL4-156" value="EXCLUSIVO&#xa;ONLINE" style="rounded=1;fillColor=#23445D;gradientColor=none;strokeColor=none;fontColor=#FFFFFF;fontStyle=1;fontFamily=Tahoma;fontSize=14" vertex="1" parent="1">
          <mxGeometry x="504" y="465.5" width="130" height="60" as="geometry" />
        </mxCell>
        <mxCell id="SnyUNI3W6FsP-a_xVLL4-157" value="SUMMER&#xa;FRIDAYS" style="rounded=1;fillColor=#23445D;gradientColor=none;strokeColor=none;fontColor=#FFFFFF;fontStyle=1;fontFamily=Tahoma;fontSize=14" vertex="1" parent="1">
          <mxGeometry x="504" y="555.5" width="130" height="60" as="geometry" />
        </mxCell>
        <mxCell id="SnyUNI3W6FsP-a_xVLL4-158" value="BRIOGEO" style="rounded=1;fillColor=#23445D;gradientColor=none;strokeColor=none;fontColor=#FFFFFF;fontStyle=1;fontFamily=Tahoma;fontSize=14" vertex="1" parent="1">
          <mxGeometry x="504" y="645.5" width="130" height="60" as="geometry" />
        </mxCell>
        <mxCell id="SnyUNI3W6FsP-a_xVLL4-159" value="BELIF" style="rounded=1;fillColor=#23445D;gradientColor=none;strokeColor=none;fontColor=#FFFFFF;fontStyle=1;fontFamily=Tahoma;fontSize=14" vertex="1" parent="1">
          <mxGeometry x="504" y="735.5" width="130" height="60" as="geometry" />
        </mxCell>
        <mxCell id="SnyUNI3W6FsP-a_xVLL4-160" value="" style="edgeStyle=elbowEdgeStyle;elbow=horizontal;strokeWidth=2;rounded=0;" edge="1" parent="1">
          <mxGeometry x="-23" y="135.5" width="100" height="100" as="geometry">
            <mxPoint x="500.5" y="495.5" as="sourcePoint" />
            <mxPoint x="500.5" y="770" as="targetPoint" />
            <Array as="points">
              <mxPoint x="480" y="765" />
            </Array>
          </mxGeometry>
        </mxCell>
        <mxCell id="SnyUNI3W6FsP-a_xVLL4-161" value="" style="edgeStyle=elbowEdgeStyle;elbow=horizontal;strokeWidth=2;rounded=0;entryX=0.001;entryY=0.177;entryDx=0;entryDy=0;entryPerimeter=0;" edge="1" parent="1">
          <mxGeometry x="-23" y="135.5" width="100" height="100" as="geometry">
            <mxPoint x="500.5" y="495.5" as="sourcePoint" />
            <mxPoint x="500.5" y="678" as="targetPoint" />
            <Array as="points">
              <mxPoint x="480" y="765" />
            </Array>
          </mxGeometry>
        </mxCell>
        <mxCell id="SnyUNI3W6FsP-a_xVLL4-162" value="" style="edgeStyle=elbowEdgeStyle;elbow=horizontal;strokeWidth=2;rounded=0;entryX=0;entryY=0.5;entryDx=0;entryDy=0;" edge="1" parent="1" target="SnyUNI3W6FsP-a_xVLL4-157">
          <mxGeometry x="-23" y="135.5" width="100" height="100" as="geometry">
            <mxPoint x="500.5" y="495.5" as="sourcePoint" />
            <mxPoint x="500.5" y="1035.5" as="targetPoint" />
            <Array as="points">
              <mxPoint x="480" y="765" />
            </Array>
          </mxGeometry>
        </mxCell>
        <mxCell id="SnyUNI3W6FsP-a_xVLL4-163" value="" style="edgeStyle=elbowEdgeStyle;elbow=vertical;strokeWidth=2;rounded=0;entryX=0.5;entryY=0;entryDx=0;entryDy=0;exitX=0.138;exitY=0.945;exitDx=0;exitDy=0;exitPerimeter=0;" edge="1" parent="1" source="122" target="SnyUNI3W6FsP-a_xVLL4-156">
          <mxGeometry x="-23" y="135.5" width="100" height="100" as="geometry">
            <mxPoint x="215" y="422" as="sourcePoint" />
            <mxPoint x="570.4" y="462.6" as="targetPoint" />
          </mxGeometry>
        </mxCell>
        <mxCell id="SnyUNI3W6FsP-a_xVLL4-168" value="" style="edgeStyle=elbowEdgeStyle;elbow=vertical;strokeWidth=2;rounded=0;exitX=0.39;exitY=1.056;exitDx=0;exitDy=0;exitPerimeter=0;" edge="1" parent="1">
          <mxGeometry x="-23" y="135.5" width="100" height="100" as="geometry">
            <mxPoint x="841.5800000000002" y="975.5" as="sourcePoint" />
            <mxPoint x="842.0799999999999" y="1006.02" as="targetPoint" />
          </mxGeometry>
        </mxCell>
        <mxCell id="SnyUNI3W6FsP-a_xVLL4-169" value="TODAS LAS &#xa;NOVEDADES" style="rounded=1;fillColor=#23445D;gradientColor=none;strokeColor=none;fontColor=#FFFFFF;fontStyle=1;fontFamily=Tahoma;fontSize=14" vertex="1" parent="1">
          <mxGeometry x="777" y="735.5" width="130" height="60" as="geometry" />
        </mxCell>
        <mxCell id="SnyUNI3W6FsP-a_xVLL4-170" value="NUEVAS &#xa;MARCAS" style="rounded=1;fillColor=#23445D;gradientColor=none;strokeColor=none;fontColor=#FFFFFF;fontStyle=1;fontFamily=Tahoma;fontSize=14" vertex="1" parent="1">
          <mxGeometry x="777" y="825.5" width="130" height="60" as="geometry" />
        </mxCell>
        <mxCell id="SnyUNI3W6FsP-a_xVLL4-171" value="" style="edgeStyle=elbowEdgeStyle;elbow=horizontal;strokeWidth=2;rounded=0;entryX=0;entryY=0.5;entryDx=0;entryDy=0;" edge="1" parent="1" target="SnyUNI3W6FsP-a_xVLL4-172">
          <mxGeometry x="-23" y="135.5" width="100" height="100" as="geometry">
            <mxPoint x="906.5" y="764.12" as="sourcePoint" />
            <mxPoint x="960" y="710" as="targetPoint" />
            <Array as="points">
              <mxPoint x="937" y="600" />
            </Array>
          </mxGeometry>
        </mxCell>
        <mxCell id="SnyUNI3W6FsP-a_xVLL4-172" value="MAQUILLAJE" style="rounded=1;fillColor=#23445D;gradientColor=none;strokeColor=none;fontColor=#FFFFFF;fontStyle=1;fontFamily=Tahoma;fontSize=14" vertex="1" parent="1">
          <mxGeometry x="968" y="575.5" width="130" height="60" as="geometry" />
        </mxCell>
        <mxCell id="SnyUNI3W6FsP-a_xVLL4-173" value="" style="edgeStyle=elbowEdgeStyle;elbow=horizontal;strokeWidth=2;rounded=0;entryX=0;entryY=0.5;entryDx=0;entryDy=0;" edge="1" parent="1" target="SnyUNI3W6FsP-a_xVLL4-174">
          <mxGeometry x="-23" y="135.5" width="100" height="100" as="geometry">
            <mxPoint x="907" y="763.12" as="sourcePoint" />
            <mxPoint x="971" y="669" as="targetPoint" />
            <Array as="points">
              <mxPoint x="937.5" y="599" />
            </Array>
          </mxGeometry>
        </mxCell>
        <mxCell id="SnyUNI3W6FsP-a_xVLL4-174" value="TRATAMIENTO" style="rounded=1;fillColor=#23445D;gradientColor=none;strokeColor=none;fontColor=#FFFFFF;fontStyle=1;fontFamily=Tahoma;fontSize=14" vertex="1" parent="1">
          <mxGeometry x="968" y="655.5" width="130" height="60" as="geometry" />
        </mxCell>
        <mxCell id="SnyUNI3W6FsP-a_xVLL4-175" value="PERFUME" style="rounded=1;fillColor=#23445D;gradientColor=none;strokeColor=none;fontColor=#FFFFFF;fontStyle=1;fontFamily=Tahoma;fontSize=14" vertex="1" parent="1">
          <mxGeometry x="968" y="733" width="130" height="60" as="geometry" />
        </mxCell>
        <mxCell id="SnyUNI3W6FsP-a_xVLL4-176" value="CABELLO" style="rounded=1;fillColor=#23445D;gradientColor=none;strokeColor=none;fontColor=#FFFFFF;fontStyle=1;fontFamily=Tahoma;fontSize=14" vertex="1" parent="1">
          <mxGeometry x="968" y="810.5" width="130" height="60" as="geometry" />
        </mxCell>
        <mxCell id="SnyUNI3W6FsP-a_xVLL4-177" value="CUERPO" style="rounded=1;fillColor=#23445D;gradientColor=none;strokeColor=none;fontColor=#FFFFFF;fontStyle=1;fontFamily=Tahoma;fontSize=14" vertex="1" parent="1">
          <mxGeometry x="968" y="885.5" width="130" height="60" as="geometry" />
        </mxCell>
        <mxCell id="SnyUNI3W6FsP-a_xVLL4-178" value="" style="edgeStyle=elbowEdgeStyle;elbow=horizontal;strokeWidth=2;rounded=0;entryX=0;entryY=0.5;entryDx=0;entryDy=0;" edge="1" parent="1">
          <mxGeometry x="-23" y="135.5" width="100" height="100" as="geometry">
            <mxPoint x="911" y="763.5" as="sourcePoint" />
            <mxPoint x="969.5000000000005" y="763" as="targetPoint" />
            <Array as="points">
              <mxPoint x="939" y="683" />
            </Array>
          </mxGeometry>
        </mxCell>
        <mxCell id="SnyUNI3W6FsP-a_xVLL4-179" value="" style="edgeStyle=elbowEdgeStyle;elbow=horizontal;strokeWidth=2;rounded=0;entryX=0;entryY=0.5;entryDx=0;entryDy=0;" edge="1" parent="1" target="SnyUNI3W6FsP-a_xVLL4-176">
          <mxGeometry x="-23" y="135.5" width="100" height="100" as="geometry">
            <mxPoint x="907" y="764" as="sourcePoint" />
            <mxPoint x="980" y="696.94" as="targetPoint" />
            <Array as="points">
              <mxPoint x="938" y="794" />
            </Array>
          </mxGeometry>
        </mxCell>
        <mxCell id="SnyUNI3W6FsP-a_xVLL4-180" value="" style="edgeStyle=elbowEdgeStyle;elbow=horizontal;strokeWidth=2;rounded=0;entryX=0;entryY=0.5;entryDx=0;entryDy=0;" edge="1" parent="1">
          <mxGeometry x="-23" y="135.5" width="100" height="100" as="geometry">
            <mxPoint x="909" y="763" as="sourcePoint" />
            <mxPoint x="968" y="915.5" as="targetPoint" />
            <Array as="points">
              <mxPoint x="938" y="841" />
            </Array>
          </mxGeometry>
        </mxCell>
        <mxCell id="SnyUNI3W6FsP-a_xVLL4-181" value="NOVEDADES &#xa;SEPHORA&#xa;COLLECTION" style="rounded=1;fillColor=#23445D;gradientColor=none;strokeColor=none;fontColor=#FFFFFF;fontStyle=1;fontFamily=Tahoma;fontSize=14" vertex="1" parent="1">
          <mxGeometry x="777" y="915.5" width="130" height="60" as="geometry" />
        </mxCell>
        <mxCell id="SnyUNI3W6FsP-a_xVLL4-182" value="HOT ON&#xa;SOCIAL MEDIA" style="rounded=1;fillColor=#23445D;gradientColor=none;strokeColor=none;fontColor=#FFFFFF;fontStyle=1;fontFamily=Tahoma;fontSize=14" vertex="1" parent="1">
          <mxGeometry x="770.5" y="1005.5" width="143" height="60" as="geometry" />
        </mxCell>
        <mxCell id="SnyUNI3W6FsP-a_xVLL4-183" value="" style="edgeStyle=elbowEdgeStyle;elbow=vertical;strokeWidth=2;rounded=0;exitX=0.39;exitY=1.056;exitDx=0;exitDy=0;exitPerimeter=0;" edge="1" parent="1">
          <mxGeometry x="-23" y="135.5" width="100" height="100" as="geometry">
            <mxPoint x="841.5800000000002" y="885.5" as="sourcePoint" />
            <mxPoint x="842.0799999999999" y="916.02" as="targetPoint" />
          </mxGeometry>
        </mxCell>
        <mxCell id="SnyUNI3W6FsP-a_xVLL4-184" value="" style="edgeStyle=elbowEdgeStyle;elbow=vertical;strokeWidth=2;rounded=0;exitX=0.39;exitY=1.056;exitDx=0;exitDy=0;exitPerimeter=0;" edge="1" parent="1">
          <mxGeometry x="-23" y="135.5" width="100" height="100" as="geometry">
            <mxPoint x="841.5800000000002" y="795.5" as="sourcePoint" />
            <mxPoint x="842.0799999999999" y="826.02" as="targetPoint" />
          </mxGeometry>
        </mxCell>
        <mxCell id="SnyUNI3W6FsP-a_xVLL4-185" value="" style="edgeStyle=elbowEdgeStyle;elbow=vertical;strokeWidth=2;rounded=0;exitX=0.39;exitY=1.056;exitDx=0;exitDy=0;exitPerimeter=0;" edge="1" parent="1">
          <mxGeometry x="-23" y="135.5" width="100" height="100" as="geometry">
            <mxPoint x="841.5800000000002" y="705.5" as="sourcePoint" />
            <mxPoint x="842.0799999999999" y="736.02" as="targetPoint" />
          </mxGeometry>
        </mxCell>
        <mxCell id="SnyUNI3W6FsP-a_xVLL4-186" value="" style="edgeStyle=elbowEdgeStyle;elbow=vertical;strokeWidth=2;rounded=0;exitX=0.39;exitY=1.056;exitDx=0;exitDy=0;exitPerimeter=0;" edge="1" parent="1">
          <mxGeometry x="-23" y="135.5" width="100" height="100" as="geometry">
            <mxPoint x="841.5800000000002" y="615.5" as="sourcePoint" />
            <mxPoint x="842.0799999999999" y="646.02" as="targetPoint" />
          </mxGeometry>
        </mxCell>
        <mxCell id="SnyUNI3W6FsP-a_xVLL4-187" value="" style="edgeStyle=elbowEdgeStyle;elbow=vertical;strokeWidth=2;rounded=0;exitX=0.39;exitY=1.056;exitDx=0;exitDy=0;exitPerimeter=0;" edge="1" parent="1">
          <mxGeometry x="-23" y="135.5" width="100" height="100" as="geometry">
            <mxPoint x="841.5800000000002" y="525.5" as="sourcePoint" />
            <mxPoint x="842.0799999999999" y="556.02" as="targetPoint" />
          </mxGeometry>
        </mxCell>
        <mxCell id="SnyUNI3W6FsP-a_xVLL4-189" value="" style="edgeStyle=elbowEdgeStyle;elbow=horizontal;strokeWidth=2;rounded=0;exitX=0;exitY=0.5;exitDx=0;exitDy=0;entryX=1;entryY=0.5;entryDx=0;entryDy=0;" edge="1" parent="1" source="SnyUNI3W6FsP-a_xVLL4-170" target="SnyUNI3W6FsP-a_xVLL4-193">
          <mxGeometry x="-23" y="135.5" width="100" height="100" as="geometry">
            <mxPoint x="660" y="1114.56" as="sourcePoint" />
            <mxPoint x="660" y="1080" as="targetPoint" />
            <Array as="points">
              <mxPoint x="759" y="971" />
            </Array>
          </mxGeometry>
        </mxCell>
        <mxCell id="SnyUNI3W6FsP-a_xVLL4-190" value="HAUS&#xa;LABS" style="rounded=1;fillColor=#23445D;gradientColor=none;strokeColor=none;fontColor=#FFFFFF;fontStyle=1;fontFamily=Tahoma;fontSize=14" vertex="1" parent="1">
          <mxGeometry x="590" y="825.5" width="130" height="60" as="geometry" />
        </mxCell>
        <mxCell id="SnyUNI3W6FsP-a_xVLL4-191" value="GLOW RECIPE" style="rounded=1;fillColor=#23445D;gradientColor=none;strokeColor=none;fontColor=#FFFFFF;fontStyle=1;fontFamily=Tahoma;fontSize=14" vertex="1" parent="1">
          <mxGeometry x="590" y="900" width="130" height="60" as="geometry" />
        </mxCell>
        <mxCell id="SnyUNI3W6FsP-a_xVLL4-192" value="K18" style="rounded=1;fillColor=#23445D;gradientColor=none;strokeColor=none;fontColor=#FFFFFF;fontStyle=1;fontFamily=Tahoma;fontSize=14" vertex="1" parent="1">
          <mxGeometry x="590" y="975.5" width="130" height="60" as="geometry" />
        </mxCell>
        <mxCell id="SnyUNI3W6FsP-a_xVLL4-193" value="DR DENNIS&#xa;GROSS" style="rounded=1;fillColor=#23445D;gradientColor=none;strokeColor=none;fontColor=#FFFFFF;fontStyle=1;fontFamily=Tahoma;fontSize=14" vertex="1" parent="1">
          <mxGeometry x="590" y="1050" width="130" height="60" as="geometry" />
        </mxCell>
        <mxCell id="SnyUNI3W6FsP-a_xVLL4-194" value="" style="edgeStyle=elbowEdgeStyle;elbow=horizontal;strokeWidth=2;rounded=0;entryX=1;entryY=0.5;entryDx=0;entryDy=0;" edge="1" parent="1" target="SnyUNI3W6FsP-a_xVLL4-190">
          <mxGeometry x="-23" y="135.5" width="100" height="100" as="geometry">
            <mxPoint x="773" y="855" as="sourcePoint" />
            <mxPoint x="727" y="855" as="targetPoint" />
            <Array as="points">
              <mxPoint x="777" y="846" />
            </Array>
          </mxGeometry>
        </mxCell>
        <mxCell id="SnyUNI3W6FsP-a_xVLL4-196" value="" style="edgeStyle=elbowEdgeStyle;elbow=horizontal;strokeWidth=2;rounded=0;exitX=0;exitY=0.5;exitDx=0;exitDy=0;entryX=1;entryY=0.5;entryDx=0;entryDy=0;" edge="1" parent="1" source="SnyUNI3W6FsP-a_xVLL4-170" target="SnyUNI3W6FsP-a_xVLL4-192">
          <mxGeometry x="-23" y="135.5" width="100" height="100" as="geometry">
            <mxPoint x="787" y="866" as="sourcePoint" />
            <mxPoint x="730" y="1090" as="targetPoint" />
            <Array as="points">
              <mxPoint x="759" y="931" />
            </Array>
          </mxGeometry>
        </mxCell>
        <mxCell id="SnyUNI3W6FsP-a_xVLL4-197" value="" style="edgeStyle=elbowEdgeStyle;elbow=horizontal;strokeWidth=2;rounded=0;exitX=0;exitY=0.5;exitDx=0;exitDy=0;entryX=1;entryY=0.5;entryDx=0;entryDy=0;" edge="1" parent="1" source="SnyUNI3W6FsP-a_xVLL4-170" target="SnyUNI3W6FsP-a_xVLL4-191">
          <mxGeometry x="-23" y="135.5" width="100" height="100" as="geometry">
            <mxPoint x="797" y="876" as="sourcePoint" />
            <mxPoint x="740" y="1100" as="targetPoint" />
            <Array as="points">
              <mxPoint x="759" y="908" />
            </Array>
          </mxGeometry>
        </mxCell>
      </root>
    </mxGraphModel>
  </diagram>
</mxfile>
